<mxfile host="app.diagrams.net" modified="2023-05-04T06:21:12.460Z" agent="Mozilla/5.0 (Windows NT 10.0; Win64; x64) AppleWebKit/537.36 (KHTML, like Gecko) Chrome/112.0.0.0 Safari/537.36 Edg/112.0.1722.64" version="21.2.7" etag="7rvikQ43B_0vo4Yced1L" type="github">
  <diagram name="Page-1" id="2pkvfsqw9tOk4lTziS0Z">
    <mxGraphModel>
      <root>
        <mxCell id="0" />
        <mxCell id="1" parent="0" />
      </root>
    </mxGraphModel>
  </diagram>
</mxfile>
